<?xml version="1.0" encoding="UTF-8"?>
<!DOCTYPE svg PUBLIC "-//W3C//DTD SVG 1.1//EN" "http://www.w3.org/Graphics/SVG/1.1/DTD/svg11.dtd">
<!-- Creator: CorelDRAW 2021 (64-Bit) -->
<svg xmlns="http://www.w3.org/2000/svg" xml:space="preserve" width="162.56mm" height="91.4398mm" version="1.1" shape-rendering="geometricPrecision" text-rendering="geometricPrecision" image-rendering="optimizeQuality" fill-rule="evenodd" clip-rule="evenodd"
viewBox="0 0 162559.8 91439.8"
 xmlns:xlink="http://www.w3.org/1999/xlink"
 xmlns:xodm="http://www.corel.com/coreldraw/odm/2003">
 <defs>
   <linearGradient id="id0" gradientUnits="userSpaceOnUse" x1="46566.6" y1="82719.2" x2="46481.9" y2="70442.6">
    <stop offset="0" stop-opacity="1" stop-color="#63BDE3"/>
    <stop offset="1" stop-opacity="0.898039" stop-color="#1390C2"/>
   </linearGradient>
 </defs>
 <g id="Layer_x0020_1">
  <metadata id="CorelCorpID_0Corel-Layer"/>
  <path fill="#217191" fill-rule="nonzero" fill-opacity="0.941176" d="M-0.1 59875.5l-68.4 31683.6 162614.3 -58.6c0,0 0,-23480.5 0,-23480.5 0,0 -1746.6,-5044.8 -4029,-5044.8 -2282.4,0 -1668.7,8645.7 -3401.8,8645.7 -1733,0 -390.3,-12986.5 -2548.7,-12986.5 -2158.4,0 -1392.6,7566.5 -3086.3,7566.5 -1693.8,0 -1605.3,-2247.3 -3354.2,-2247.3 -1748.9,0 -597.9,5219.6 -3044.4,5219.6 -2446.5,0 -2973.4,-6925.5 -5419.9,-6925.5 -2446.5,0 -2651.9,7320.4 -4462.8,6925.5 -1810.8,-394.9 -5177.5,-2972.3 -8198.5,-2972.3 -3021,0 -2107.2,10844.2 -5709.9,10737.7 -3602.8,-106.4 -2473.2,-15137.5 -5308.3,-13243.2 -2835.1,1894.4 -1602.2,5112.8 -2778.4,5112.8 -1176.1,0 -953.2,-6560.5 -2851.6,-6560.5 -1898.3,0 -1599.9,4634.6 -3470.9,4634.6 -1871,0 -1777.7,-6101.4 -4654.2,-6101.4 -2876.4,0 -1701.4,10840 -3955.1,10840 -2253.6,0 -1033,-7441.5 -3149,-7441.5 -2115.9,0 -916.6,6150.3 -2260.8,6150.3 -1344.1,0 -1037,-4826.4 -2470.3,-4826.4 -1433.2,0 -2668.6,2144.2 -3196.8,-1807.9 -494.1,-3696.6 -1290.3,-6291.5 -2119.2,-6312.9 -1622.1,-41.9 -1456.9,7223.5 -2589.8,7259.4 -1132.8,35.9 -560.7,-2496.7 -1622.6,-2507.7 -1061.9,-11 -1668.7,9530.5 -3401.7,9530.5 -1733,0 -383.3,-13173.5 -2548.7,-12986.4 -2165.5,187.1 -1294.3,9243.4 -3086.4,8992.3 -1792,-251.1 -1732.3,-5077.2 -3354.1,-4750.7 -1621.8,326.6 -589.9,6087.7 -3044.4,6297.1 -2454.5,209.5 -2973.4,-6925.4 -5419.9,-6925.4 -2446.5,0 -2651.9,7320.3 -4462.8,6925.4 -1810.9,-394.8 -5177.6,-2972.2 -8198.5,-2972.2 -3021,0 -2107.2,10844.1 -5710,10737.7 -3602.7,-106.4 -2473.2,-15137.5 -5308.2,-13243.2 -2835.1,1894.4 -1602.2,5112.8 -2778.4,5112.8 -1176.2,0 -953.3,-6560.5 -2851.6,-6560.5 -1898.4,0 -1600,4634.6 -3471,4634.6 -1871,0 -1777.7,-6101.4 -4654.1,-6101.4 -2876.4,0 -1701.5,10839.9 -3955.1,10839.9 -2253.6,0 -1033.1,-7441.4 -3149,-7441.4 -2115.9,0 -916.7,6150.3 -2260.8,6150.3 -1344.1,0 -1037.1,-4826.4 -2470.3,-4826.4 -1433.2,0 -2668.7,2144.2 -3196.9,-1807.9 -528.1,-3952.1 -1036.3,-6208.2 -2386.3,-6208.2 -1349.9,0 -1388.5,3967.4 -2055.8,3967.4 -667.2,0 -1099.4,-1623 -1099.4,-1623z"/>
  <path fill="url(#id0)" fill-rule="nonzero" d="M81733.7 91508.1c14794.9,-61.7 80812.1,-7.6 80812.1,-7.6 0,0 -14.1,-26166.7 -14.1,-26166.7 0,0 -467.4,-2258.4 -2841.7,6171.9 -2374.3,8430.3 -10112.5,4838.8 -11491.4,2022 -1378.9,-2816.8 -3217.6,-2022 -4826.3,4024 -1608.7,6046 -2758,-4828.8 -3907.1,-6046 -1149.1,-1217.2 -3102.7,-1499 -4826.4,2022 -1723.7,3521 -2834.4,-334.7 -3677.2,-6639.6 -842.8,-6304.9 -2099,-4996.9 -2987.8,-2213.1 -888.8,2783.8 -1905.2,6275.5 -3005.9,2804.2 -1100.7,-3471.3 -4593.4,-3906.9 -6136.3,1482.3 -1542.9,5389.2 -4482.1,-4898.5 -6715.5,2241.5 -2233.4,7140 -7057.7,9514.1 -8416.9,1699.4 -1359.2,-7814.7 -3789.6,-9707.2 -6206.1,-4300.7 -2416.5,5406.5 -4034,11742.4 -6313.9,11171.7 -2279.9,-570.7 -5388.2,-26791.1 -11377.7,-8296.4 -5989.5,18494.7 -5394.8,7776.9 -8083,1563.8 -2688.2,-6213.1 -4729.6,-3395 -6370.1,3978.5 -1640.5,7373.5 -4314.9,-4296.5 -5522.5,-5475.2 -1207.6,-1178.7 -2778.7,-1663 -4236.4,2022 -1457.7,3685 -2175.8,710.6 -3201.7,-5574.2 -1025.9,-6284.8 -2638.4,-6223.8 -4053.3,-3278.5 -1414.9,2945.3 -973,3223.1 -1986,3531 -1013,307.9 -1189.2,-7154 -4548.1,-7134.6 -3358.9,19.4 -3861.2,12817.4 -5814.6,12817.4 -1953.4,0 -3172.4,-4761.1 -4917.3,-4742.3 -1744.9,18.8 -2417.5,8685.3 -5794.2,8881.8 -3376.7,196.5 -1399.6,-10115.6 -4504.8,-10417.5 -3105.2,-301.9 -4174.6,8298.4 -8305.5,8298.4 -4130.9,0 -3691.4,-15506.5 -6446.9,-15541.6 -2755.5,-35.1 -2745.4,8336.5 -3792.5,8336.5 -1047.1,0 -1249.5,-2456.9 -2224.7,-2251.7l0 24999.9c1566.6,21.5 66938.9,79.1 81733.8,17.4z"/>
 </g>
</svg>
